<svg width="512" height="512" xmlns="http://www.w3.org/2000/svg" version="1.1" xml:space="preserve">
 <g>
  <title>Layer 1</title>
  <g id="svg_1" stroke="null">
   <polygon points="32,0 72.8,460.8 256,512 439.136,460.832 480,0 " fill="#000000" data-original="#2196f3" id="svg_2" stroke="null" xmlns="http://www.w3.org/2000/svg"/>
   <polygon points="392.768,150.688 387.616,208.576 372.064,382.112 256,414.208 255.904,414.24   139.904,382.112 131.808,291.36 188.64,291.36 192.864,338.432 255.936,355.456 255.968,355.424 319.136,338.4 327.744,259.968   129.088,260.512 123.456,206.88 332.512,204.416 336.736,147.008 117.856,147.616 114.176,94.208 256,94.208 397.824,94.208 " fill="#fafafa" data-original="#fafafa" id="svg_3" stroke="null" xmlns="http://www.w3.org/2000/svg"/>
   <g id="svg_4" stroke="null" xmlns="http://www.w3.org/2000/svg"/>
   <g id="svg_5" stroke="null" xmlns="http://www.w3.org/2000/svg"/>
   <g id="svg_6" stroke="null" xmlns="http://www.w3.org/2000/svg"/>
   <g id="svg_7" stroke="null" xmlns="http://www.w3.org/2000/svg"/>
   <g id="svg_8" stroke="null" xmlns="http://www.w3.org/2000/svg"/>
   <g id="svg_9" stroke="null" xmlns="http://www.w3.org/2000/svg"/>
   <g id="svg_10" stroke="null" xmlns="http://www.w3.org/2000/svg"/>
   <g id="svg_11" stroke="null" xmlns="http://www.w3.org/2000/svg"/>
   <g id="svg_12" stroke="null" xmlns="http://www.w3.org/2000/svg"/>
   <g id="svg_13" stroke="null" xmlns="http://www.w3.org/2000/svg"/>
   <g id="svg_14" stroke="null" xmlns="http://www.w3.org/2000/svg"/>
   <g id="svg_15" stroke="null" xmlns="http://www.w3.org/2000/svg"/>
   <g id="svg_16" stroke="null" xmlns="http://www.w3.org/2000/svg"/>
   <g id="svg_17" stroke="null" xmlns="http://www.w3.org/2000/svg"/>
   <g id="svg_18" stroke="null" xmlns="http://www.w3.org/2000/svg"/>
  </g>
  <path d="m25,210c1,0 1.49346,-1.87856 2,-5c0.64073,-3.94835 0.4305,-8.133 -1,-12c-1.55159,-4.19435 0,-7 -2,-7c-1,0 2.17105,1.71506 6,20c5.79712,27.68381 4.30927,55.04883 1,75c-1.82947,11.02963 -2.19707,11.99026 -2,10c1.50734,-15.22263 7.1604,-45.00578 6,-75c-1.0502,-27.14584 -5.99024,-44.79025 -7,-52c-0.2774,-1.98067 0,-1 0,4c0,26 0.45466,71.33351 -7,117c-5.27739,32.32877 -10.5412,41.69345 -10,43c0.38268,0.92389 5.51145,-3.50781 12,-26c10.49253,-36.3718 10.23308,-82.19385 6,-118c-2.62525,-22.20604 -5,-31 -6,-31c-1,0 -1.28392,5.9579 -5,32c-5.41431,37.94319 -9.49987,69.98297 -10,92c-0.34065,14.99612 -0.30656,22.4588 1,23c1.84776,0.76538 9.46559,-4.03845 17,-27c12.1072,-36.89737 11.9693,-82.12267 9,-118c-1.50513,-18.18611 -3,-20 -3,-19c0,10 -1.99988,51.97693 -3,117c-0.76896,49.99408 -2.0742,77.50244 3,77c0.99513,-0.09854 0.30413,-6.0033 0,-20c-0.50012,-23.0163 -4.2688,-53.02875 -3,-81c1.00103,-22.06802 5.49829,-32.93796 6,-39c0.49488,-5.97955 -0.29289,-8.70711 -1,-8c-1.41422,1.41422 -0.49984,12.98126 -1,33c-0.62442,24.9922 0,50 1,65l0,4l1,1" id="svg_19" stroke="#000" fill="none"/>
  <path id="svg_20" d="m25,133" opacity="NaN" stroke="#000" fill="#000000"/>
  <line stroke-linecap="undefined" stroke-linejoin="undefined" id="svg_21" y2="177" x2="38" y1="111" x1="22" stroke="#000" fill="none"/>
  <path d="m11,50c0,1 2.07823,0.92472 4,3c6.26422,6.76458 14.61027,22.51485 19,40c3.20272,12.75706 2.99659,19.91752 2,20c-6.06204,0.50171 -5.47579,-25.18909 -14,-48c-7.54025,-20.17783 -10.10912,-24.99403 -10,-24c1.00601,9.16449 4.99761,27.01991 4,52c-1.0008,25.0599 3.16449,51.00601 -6,50c-0.99403,-0.10912 0.78508,-1.72891 7,-21c11.46796,-35.55961 12.01152,-73.0823 15,-103c1.50413,-15.05781 2,-16 2,-16c3,20 2.39316,67.18121 8,129c4.10069,45.21266 11.99245,64.81557 13,73c0.12218,0.99251 1.69509,-8.14226 -2,-42c-5.49358,-50.33707 -19,-92 -31,-119l-2,-3" id="svg_22" stroke="#000" fill="none"/>
  <path d="m23,372c0,-1 2.07088,-5.82507 4,-21c2.27349,-17.88382 1,-33 1,-48l0,-12l0,-7l0,-2" id="svg_23" stroke="#000" fill="none"/>
  <path d="m29,404c0,2 3.29812,6.9389 5,16c2.42796,12.92691 4.03331,28.12009 6,40c1.34681,8.1355 3,12 4,12c3,0 0.49903,-9.95331 1,-18c0.31069,-4.99033 6,-17 0,-17c-1,0 0,4 0,16c0,13 -2,26 -2,36c0,8 0.70174,14.84976 5,20c3.20374,3.83875 8,4 10,4c1,0 2.60872,-1.68881 11,-6c16.35278,-8.40158 40.97503,-12.49973 56,-13c6.99612,-0.23294 6.99748,-1.07089 6,-1c-7.05328,0.50125 -17.85159,3.99512 -28,5c-10.94646,1.08392 -20,0 -29,-3c-9,-3 -12.83982,-2.01291 -13,-3c-1.01308,-6.24289 23.98556,-3.49863 50,-3c26.07202,0.49973 52.9563,5.30701 80,9c23.96437,3.27249 39,7 39,4c0,-1 -10.00438,0.38608 -27,0c-22.01703,-0.50012 -41,-3 -51,-3c-1,0 0,-1 15,-1c30,0 62,1 94,1c29,0 51,0 65,0c6,0 5,0 2,0c-13,0 -32.0368,-0.37033 -54,2c-16.03143,1.73016 -21.99898,2.95468 -21,3c22.06802,1.00104 74.00162,4.49338 149,4c76.00494,-0.5 146.99237,-2.49997 196,-3c18.99902,-0.19385 20,0 12,0c-28,0 -71.37952,-2.15265 -117,7c-36.38297,7.29938 -49.97324,11.22974 -49,11c4.35251,-1.02747 23.07941,-4.66571 49,-11c31.10046,-7.60013 65.82935,-17.38458 79,-36c7.30579,-10.32596 -0.39368,-23.02826 -10,-28c-12.36987,-6.40204 -26.88068,-6.96277 -42,1c-21.60052,11.37616 -45.54089,34.74902 -68,48c-10.79166,6.36713 -12.79465,6.39923 -13,5c-2.14404,-14.60831 27.35513,-44.27737 53,-94c27.47241,-53.26599 39.99896,-97.93198 41,-120c0.13593,-2.99692 -1.47369,-2.29837 -7,7c-21.9393,36.91431 -45.20892,90.34903 -72,150c-19.42969,43.26068 -30.79681,61.97052 -28,65c4.1261,4.46936 18.18134,-6.24161 32,-35c22.46301,-46.74841 26.51108,-109.03513 32,-182c4.59125,-61.03212 13.36432,-102.51962 4,-101c-19.74176,3.20364 -1.1293,60.83383 -19,117c-20.72421,65.13452 -56.91492,115.5751 -53,146c0.46014,3.57608 8.80615,2.17014 18,-14c17.71786,-31.16211 31.09763,-80.492 49,-159c21.53922,-94.45667 37.49713,-174.82016 40,-227c1.53314,-31.96325 4.24286,-54.01308 -2,-53c-0.98706,0.16018 -0.61823,2.16979 -11,25c-18.33096,40.31098 -51.50259,95.82632 -67,153c-10.58179,39.03877 -5.07159,53.52806 0,53c7.57483,-0.78871 30.04593,-19.10403 43,-71c17.33276,-69.43757 3.63153,-130.94785 -1,-165c-1.08658,-7.9887 0,-10 -1,-10c-5,0 -0.50043,17.96881 0,30c0.54025,12.98877 2,24 3,28l1,1" id="svg_25" stroke-width="99" stroke="#000" fill="none"/>
  <path d="m-14,16c3,1 7.86245,11.8721 11,36c4.14458,31.87197 4.47685,78.00304 5,123c0.50003,43.00871 2.82032,76.1839 0,95c-0.61118,4.07755 -1,3 -1,1c0,-23 5.44807,-81.86873 9,-171c3.22558,-80.94193 2.49949,-121.96598 3,-133c0.04531,-0.99897 0.83435,2.0408 -1,31c-4.1265,65.14577 -19.48616,162.79883 -35,283c-13.27358,102.84363 -16.60031,189.00888 -18,243c-0.7779,30.00659 -2,34 -2,33c0,-2 -0.46335,-34.04297 2,-93c3.76545,-90.12115 21.74146,-183.41315 42,-243c7.53522,-22.1635 8,-23 8,-22c0,12 3,56 3,122c0,66 -2.56218,118.93857 6,149c3.30989,11.62088 6.93786,14.99808 7,14c0.50097,-8.04669 4.49998,-44.99432 5,-111c0.53026,-69.99799 -0.52432,-117.13498 -4,-147c-0.70316,-6.04198 -1,-5 -1,10c0,51 -6.77364,123.23853 -1,193c3.51197,42.43427 17.05268,57.27649 23,56c3.52526,-0.75665 7.00924,-13.0546 5,-50c-3.00443,-55.24466 -19.99458,-115.77908 -22,-143c-0.29389,-3.9892 1.40527,-5.50577 4,-4c6.97313,4.04666 9,24 14,52l1,27l1,17l0,8" id="svg_26" stroke-width="99" stroke="#000" fill="none"/>
  <polyline stroke-linecap="round" id="svg_27" points="-79,-87 -78,-87 " stroke-width="99" stroke="#000" fill="none"/>
  <polyline stroke-linecap="round" id="svg_28" points="949,-47 949,-48 " stroke-width="99" stroke="#000" fill="none"/>
 </g>

</svg>