<svg width="512" height="512" xmlns="http://www.w3.org/2000/svg" xml:space="preserve" version="1.1">

 <g>
  <title>Layer 1</title>
  <g id="svg_1">
   <circle id="svg_2" data-original="#f33052" fill="#000000" r="256" cy="256" cx="256" xmlns="http://www.w3.org/2000/svg"/>
   <g id="svg_3" xmlns="http://www.w3.org/2000/svg">
    <path id="svg_4" data-original="#ffffff" fill="#ffffff" d="m145.84,204.144l0,103.696l-19.68,0l0,-44.832l-48.624,0l0,44.832l-19.68,0l0,-103.696l19.68,0l0,42.32l48.624,0l0,-42.32l19.68,0l0,0z"/>
    <path id="svg_5" data-original="#ffffff" fill="#ffffff" d="m205.408,221.776l0,86.08l-19.68,0l0,-86.08l-29.936,0l0,-17.632l80.624,0l0,17.632l-31.008,0l0,0z"/>
    <path id="svg_6" data-original="#ffffff" fill="#ffffff" d="m367.616,204.144l0,103.696l-19.664,0l0,-56.528c0,-4.496 0.128,-9.632 0.368,-15.344l0.368,-7.744l0.384,-7.664l-0.592,0l-2.352,7.216l-2.288,7.216c-2.128,6.48 -3.776,11.264 -4.944,14.352l-22.8,58.496l-17.92,0l-23.024,-58.048c-1.264,-3.184 -2.944,-7.968 -5.008,-14.352l-2.336,-7.216l-2.352,-7.136l-0.608,0l0.368,7.52l0.384,7.616c0.304,5.872 0.448,10.912 0.448,15.104l0,56.528l-19.68,0l0,-103.696l32.064,0l18.544,48.016c1.264,3.344 2.944,8.128 5.008,14.352l2.288,7.216l2.336,7.136l0.688,0l2.208,-7.136l2.288,-7.136c1.872,-6.032 3.504,-10.8 4.864,-14.288l18.24,-48.176l32.72,0l0,0z"/>
    <path id="svg_7" data-original="#ffffff" fill="#ffffff" d="m405.52,204.144l0,86.08l48.624,0l0,17.632l-68.32,0l0,-103.696l19.696,0l0,-0.016z"/>
   </g>
   <g id="svg_8" xmlns="http://www.w3.org/2000/svg"/>
   <g id="svg_9" xmlns="http://www.w3.org/2000/svg"/>
   <g id="svg_10" xmlns="http://www.w3.org/2000/svg"/>
   <g id="svg_11" xmlns="http://www.w3.org/2000/svg"/>
   <g id="svg_12" xmlns="http://www.w3.org/2000/svg"/>
   <g id="svg_13" xmlns="http://www.w3.org/2000/svg"/>
   <g id="svg_14" xmlns="http://www.w3.org/2000/svg"/>
   <g id="svg_15" xmlns="http://www.w3.org/2000/svg"/>
   <g id="svg_16" xmlns="http://www.w3.org/2000/svg"/>
   <g id="svg_17" xmlns="http://www.w3.org/2000/svg"/>
   <g id="svg_18" xmlns="http://www.w3.org/2000/svg"/>
   <g id="svg_19" xmlns="http://www.w3.org/2000/svg"/>
   <g id="svg_20" xmlns="http://www.w3.org/2000/svg"/>
   <g id="svg_21" xmlns="http://www.w3.org/2000/svg"/>
   <g id="svg_22" xmlns="http://www.w3.org/2000/svg"/>
  </g>
  <path d="m93,17c-1,0 -5,1 -11,3c-9,3 -23.07509,6.82677 -44,16c-29.10644,12.75991 -63.81342,28.37955 -92,42c-14.90406,7.20201 -18,8 -17,8c5,0 18.7094,-1.8214 29,-5c8.80889,-2.72093 23.67691,-8.79731 50,-19c33.61858,-13.03038 74.0214,-25.92966 107,-36c26.017,-7.94455 52.00238,-10.9376 79,-12c24.00224,-0.94453 49.98027,-0.50017 69,0c3.99863,0.10515 4,1 -8,1c-27,0 -65.09438,-1.23199 -117,-8c-55.11224,-7.18612 -98.50097,-8.95332 -98,-17c0.18641,-2.9942 34.06488,-1.59845 103,2c106.15692,5.54144 220.92181,15.96722 322,19c94.96252,2.84928 158.98615,3.49991 186,4c3.99933,0.07404 -2.00385,0.45743 -29,0c-59.02539,-1.00014 -135.49319,-0.57162 -209,-11c-54.56262,-7.74078 -66.88867,-16.04928 -62,-15c42.88669,9.20497 120.65192,55.90759 200,104c72.61023,44.00862 127.71887,76.74878 165,99c14.29138,8.52979 14.9281,10.13968 9,7c-25.32098,-13.41071 -67.27466,-41.23329 -121,-72c-58.24475,-33.35485 -106.8642,-49.58533 -123,-59c-1.2215,-0.7127 -0.78836,11.01449 14,35c23.30573,37.80003 57.68634,71.37798 83,100c16.45587,18.60657 24.04858,28.94894 23,28c-10.53802,-9.53677 -27.26074,-28.51387 -49,-59c-26.12665,-36.63876 -50.46323,-70.10393 -60,-65c-0.88168,0.47186 0.68533,3.94329 2,24c2.09406,31.94707 2.2879,68.02841 4,102c1.41293,28.03577 5.82376,38.48627 8,39c0.97324,0.22977 2.49829,-0.93796 3,-7c0.8248,-9.96593 -1.5629,-23.03333 -3,-39c-1.53445,-17.04832 -2,-28 -2,-34c0,-2 0,-6 -3,-9l-5,-5l-10,-6l-14,-7" id="svg_23" stroke-width="99" stroke="#000" fill="none"/>
  <path d="m292,81c-14,-6 -27,-12 -37,-15l-6,-2" id="svg_24" stroke-width="99" stroke="#000" fill="none"/>
  <path d="m193,63c-20,2 -43.25946,2.97537 -57,7c-8.19952,2.40165 -18,9 -27,15c-9,6 -18.6113,12.89682 -27,16c-3.867,1.4305 -6,2 -8,2l-4,2l-1,1l-1,0" id="svg_25" stroke-width="99" stroke="#000" fill="none"/>
  <path d="m52,111c-3,3 -6.99055,9.82812 -17,21c-14.63496,16.33456 -39.24392,37.74399 -55,53c-7.11195,6.88623 -11.61732,8.92387 -12,8c-0.54119,-1.30656 4.20031,-3.22018 11,-15c14.77102,-25.58939 27.14553,-60.52415 36,-74c2.74565,-4.17868 3.29289,-5.70711 4,-5c0.70711,0.70711 0.4435,2.1734 -6,18c-10.29912,25.2968 -22.83673,49.08925 -30,62c-3.91147,7.04985 -7,10 -11,15l-2,5l-1,2l-1,1" id="svg_26" stroke-width="99" stroke="#000" fill="none"/>
  <path d="m-19,210c1,1 4.73145,5.07689 6,9c1.65685,5.12395 3,11 3,19c0,9 -0.50378,17.01761 -1,24c-0.50126,7.05328 -2,9 -3,11l-1,1l-1,0" id="svg_27" stroke-width="99" stroke="#000" fill="none"/>
  <path d="m-3,238c0,7 -2.81472,22.99237 -2,45c0.93149,25.16211 11.55061,50.83911 14,82c2.74382,34.90662 -0.23376,61.19873 -5,78c-1.72606,6.08447 -3.0553,7.00153 -3,8c0.50077,9.04153 2.28771,27.17471 9,53c9.95149,38.28796 85.96626,30.60376 115,-7c14.69269,-19.02957 24.98709,-18.16019 24,-18c-3.12144,0.50653 -22.72129,8.30875 -63,12c-58.78754,5.38745 -119.85012,5.90692 -140,-21c-4.94297,-6.60052 13.80791,-14.37198 59,-20c63.78789,-7.94388 127.90187,-18.3291 171,-31c13.96901,-4.1069 13.04153,-4.49924 4,-5c-29.95409,-1.659 -78.97274,1.99985 -134,3c-38.99356,0.70874 -52.5412,-1.69345 -52,-3c3.06147,-7.39102 32.44872,-2.66855 58,3c18.52331,4.10938 32.70927,16.58353 34,34c1.77992,24.01733 -10.3252,58.08234 9,73c22.79177,17.59363 60.15927,16.69751 103,13c46.51753,-4.01489 82.33942,-13.70679 95,-27c3.08429,-3.2384 -7.89795,-6.49844 -41,-8c-56.94145,-2.58292 -126,-1 -180,-1c-11,0 3.97002,-1.99979 54,-3c82.98341,-1.659 160,0 216,0c45,0 61.70709,-1.29291 61,-2c-12.02081,-12.02081 -54.99127,-1.49997 -98,-2c-19.99866,-0.23251 -17.33163,-2.93286 18,-8c56.63934,-8.12305 129.44019,0.32269 199,-16c56.97589,-13.36978 88.53058,-35.83224 88,-47c-0.44769,-9.42334 -15.81012,-19.59006 -31,-25c-11.46039,-4.08167 -25.03284,1.18552 -40,20c-23.49255,29.53134 -41.12152,65.51117 -36,87c2.18719,9.17694 11.81824,9.39307 16,6c5.59967,-4.54355 11.66455,-22.56448 19,-54c10.38635,-44.50983 10.9093,-78.21533 14,-91c0.7431,-3.07373 -0.17871,-3.82645 -2,-3c-9.68018,4.39255 -23.50989,34.01038 -49,70c-25.54901,36.07281 -65.55798,50.19083 -63,62c0.2117,0.97733 3.58319,0.66098 15,-10c23.26239,-21.72238 44.96002,-59.56348 67,-99c18.15576,-32.48645 31.12646,-47.84952 30,-57c-0.54645,-4.43863 -4.40771,-5.39294 -10,-3c-13.79053,5.90097 -30.35733,32.78607 -50,66c-15.27972,25.83661 -27.01907,40.54071 -24,45c0.56064,0.82806 2.76395,0.58841 8,-7c14.23224,-20.62628 22.86768,-54.03683 31,-83c3.93604,-14.01813 4.43948,-14.95117 3,-4c-3.83521,29.17688 -17.12375,69.7149 -27,111c-4.51736,18.88367 -5,25 -5,27l-1,0l-2,0l-1,0" id="svg_28" stroke-width="99" stroke="#000" fill="none"/>
 </g>
</svg>